<?xml version="1.0" encoding="utf-8"?>
<!-- Generator: Adobe Illustrator 22.0.0, SVG Export Plug-In . SVG Version: 6.00 Build 0)  -->
<svg version="1.1" id="Слой_1" xmlns="http://www.w3.org/2000/svg" xmlns:xlink="http://www.w3.org/1999/xlink" x="0px" y="0px"
	 viewBox="0 0 100 100" style="enable-background:new 0 0 100 100;" xml:space="preserve">
<style type="text/css">
	.st0{fill:#010101;}
	.st1{fill:#FFFFFF;}
</style>
<circle class="st0" cx="50" cy="50" r="50"/>
<g>
	<path class="st1" d="M77.5,62.6c0,1.2-0.3,2.3-0.9,3.2l-17-19l16.8-14.7c0.7,1,1,2.3,1,3.6V62.6L77.5,62.6z M50.5,50.3l23.4-20.5
		c-1-0.5-2-0.8-3.2-0.8H30.3c-1.2,0-2.3,0.3-3.2,0.8L50.5,50.3z M57.1,49l-5.4,4.7c-0.3,0.3-0.7,0.4-1.1,0.4c-0.4,0-0.8-0.1-1.1-0.4
		L44,49L26.8,68.3c1,0.6,2.2,1,3.6,1h40.4c1.3,0,2.5-0.4,3.6-1L57.1,49z M24.7,32.1c-0.7,1-1,2.3-1,3.6v26.9c0,1.2,0.3,2.3,0.9,3.2
		l17-19L24.7,32.1z"/>
</g>
</svg>
