<?xml version="1.0" encoding="utf-8"?>
<!-- Generator: Adobe Illustrator 22.0.0, SVG Export Plug-In . SVG Version: 6.00 Build 0)  -->
<svg version="1.1" id="Слой_1" xmlns="http://www.w3.org/2000/svg" xmlns:xlink="http://www.w3.org/1999/xlink" x="0px" y="0px"
	 viewBox="0 0 100 100" style="enable-background:new 0 0 100 100;" xml:space="preserve">
<style type="text/css">
	.st0{fill:#010101;}
	.st1{fill:#FFFFFF;}
</style>
<circle class="st0" cx="50.2" cy="50.1" r="49.8"/>
<g>
	<path class="st1" d="M21.1,49.2l11.6,4.3L37.3,68c0.3,0.9,1.4,1.3,2.2,0.7l6.5-5.3c0.7-0.6,1.6-0.6,2.4-0.1L60,71.8
		c0.8,0.6,1.9,0.1,2.1-0.8l8.6-41.3c0.2-1.1-0.8-2-1.8-1.6L21.1,46.6C19.9,47.1,19.9,48.7,21.1,49.2z M36.6,51.2l22.8-14
		c0.4-0.3,0.8,0.3,0.5,0.6L41,55.3c-0.7,0.6-1.1,1.4-1.2,2.3l-0.6,4.7c-0.1,0.6-1,0.7-1.1,0.1l-2.5-8.6
		C35.3,52.8,35.7,51.8,36.6,51.2z"/>
</g>
</svg>
