<?xml version="1.0" encoding="utf-8"?>
<!-- Generator: Adobe Illustrator 22.0.0, SVG Export Plug-In . SVG Version: 6.00 Build 0)  -->
<svg version="1.1" id="Слой_1" xmlns="http://www.w3.org/2000/svg" xmlns:xlink="http://www.w3.org/1999/xlink" x="0px" y="0px"
	 viewBox="0 0 100 100" style="enable-background:new 0 0 100 100;" xml:space="preserve">
<style type="text/css">
	.st0{fill:#010101;}
	.st1{fill:#FFFFFF;}
</style>
<circle class="st0" cx="50" cy="50" r="50"/>
<path class="st1" d="M40.5,60.6c5.8,5.8,12.8,10.3,21,13.6c5.7,2.3,10.5-0.1,12.5-5.9c0.4-1,0.4-2.1,0-3.1
	c-0.9-2.5-9.6-8.8-12.2-8.9c-2-0.1-3.1,1.2-4,2.6c-1.7,2.5-3.9,2.6-6.3,1.5c-2.5-1.1-4.6-2.5-6.4-4.3c-1.8-1.8-3.2-3.9-4.3-6.4
	c-1.1-2.4-1.1-4.6,1.5-6.3c1.3-0.9,2.7-2,2.6-4c-0.1-2.6-6.5-11.3-8.9-12.2c-1-0.4-2.1-0.4-3.1,0c-5.8,2-8.3,6.8-5.9,12.5
	C30.2,47.8,34.7,54.8,40.5,60.6z"/>
<path class="st1" d="M51.8,30c1.3-0.2,2.6-0.2,3.9-0.1c4,0.3,7.8,2.2,10.8,5.1c2.8,2.8,4.6,6.5,4.9,10.3c0.1,1.3,0.1,2.6-0.2,3.9
	c-0.2,0.9,0.5,1.8,1.4,1.9c0.1,0,0.2,0,0.3,0c0.8,0,1.5-0.6,1.6-1.4c0.3-1.6,0.3-3.2,0.2-4.8c-0.4-4.6-2.5-9-5.9-12.4
	c-3.5-3.5-8-5.6-12.9-6c-1.6-0.1-3.2-0.1-4.7,0.2c-0.9,0.1-1.5,1-1.4,1.9C50,29.5,50.9,30.2,51.8,30z"/>
<path class="st1" d="M67.2,49.7c0.1,0,0.1,0,0.2,0c0.8,0,1.5-0.6,1.7-1.5c0.1-0.9,0.1-1.8,0.1-2.7c-0.3-3.3-1.8-6.5-4.3-9
	c-2.6-2.6-5.9-4.1-9.4-4.4c-1-0.1-2-0.1-2.9,0.1c-0.9,0.1-1.6,1-1.4,1.9c0.1,0.9,1,1.6,1.9,1.4c0.7-0.1,1.5-0.1,2.2,0
	c2.7,0.2,5.3,1.5,7.3,3.5c1.9,1.9,3.1,4.4,3.3,6.9c0.1,0.7,0,1.4,0,2C65.6,48.7,66.3,49.6,67.2,49.7z"/>
<path class="st1" d="M61.8,48.7c0,0,0.1,0,0.1,0c0.9,0,1.6-0.7,1.7-1.6c0-0.4,0-0.8,0-1.2c-0.4-4.3-4.1-7.9-8.6-8.3
	c-0.4,0-0.7,0-1.1,0c-0.9,0-1.6,0.8-1.6,1.7c0,0.9,0.8,1.6,1.7,1.6c0.2,0,0.4,0,0.7,0c2.8,0.2,5.3,2.7,5.6,5.3c0,0.2,0,0.4,0,0.7
	C60.2,47.8,60.9,48.6,61.8,48.7z"/>
</svg>
