<?xml version="1.0" encoding="utf-8"?>
<!-- Generator: Adobe Illustrator 22.0.0, SVG Export Plug-In . SVG Version: 6.00 Build 0)  -->
<svg version="1.1" id="Слой_1" xmlns="http://www.w3.org/2000/svg" xmlns:xlink="http://www.w3.org/1999/xlink" x="0px" y="0px"
	 viewBox="0 0 100 100" style="enable-background:new 0 0 100 100;" xml:space="preserve">
<style type="text/css">
	.st0{fill:#010101;}
	.st1{fill:#FFFFFF;}
</style>
<circle class="st0" cx="50" cy="50" r="50"/>
<path class="st1" d="M30.8,55.8c2.2,3,4.8,5.7,8.2,7.6c3.8,2.2,7.8,2.8,12.1,2.6c2-0.1,2.6-0.6,2.7-2.6c0.1-1.4,0.2-2.7,0.9-4
	c0.7-1.2,1.7-1.4,2.8-0.7c0.6,0.4,1.1,0.9,1.5,1.4c1.1,1.2,2.2,2.5,3.4,3.7c1.5,1.5,3.2,2.4,5.4,2.2l8.5,0c1.4-0.1,2.1-1.8,1.3-3.3
	c-0.6-1.1-1.3-2-2-2.9c-1.7-2.1-3.8-3.9-5.7-5.7c-1.7-1.7-1.8-2.7-0.5-4.6c1.5-2.1,3.2-4.2,4.7-6.3c1.4-2,2.9-4,3.7-6.4
	c0.5-1.5,0.1-2.2-1.5-2.5c-0.3,0-0.5,0-0.8,0l-9.2,0c-1.1,0-1.8,0.5-2.2,1.5c-0.5,1.4-1.1,2.7-1.8,4c-1.5,3-3.1,5.9-5.4,8.3
	c-0.5,0.5-1.1,1.2-1.9,0.9c-1.1-0.4-1.4-2.1-1.3-2.7l0-10.6c-0.2-1.5-0.5-2.2-2.1-2.5H42c-1.3,0-1.9,0.5-2.6,1.3
	c-0.4,0.5-0.5,0.8,0.3,0.9c1.6,0.3,2.5,1.3,2.7,2.9c0.4,2.5,0.4,5.1,0.1,7.7c-0.1,0.7-0.2,1.5-0.5,2.2c-0.5,1.1-1.2,1.3-2.2,0.6
	c-0.9-0.6-1.5-1.5-2.1-2.3c-2.3-3.2-4.1-6.7-5.6-10.4c-0.4-1.1-1.2-1.7-2.3-1.7c-2.8,0-5.5-0.1-8.3,0c-1.7,0-2.2,0.8-1.5,2.3
	C23.1,43.3,26.4,49.9,30.8,55.8z"/>
</svg>
