<?xml version="1.0" encoding="utf-8"?>
<!-- Generator: Adobe Illustrator 22.0.0, SVG Export Plug-In . SVG Version: 6.00 Build 0)  -->
<svg version="1.1" id="Слой_1" xmlns="http://www.w3.org/2000/svg" xmlns:xlink="http://www.w3.org/1999/xlink" x="0px" y="0px"
	 viewBox="0 0 100 100" style="enable-background:new 0 0 100 100;" xml:space="preserve">
<style type="text/css">
	.st0{fill:#010101;}
	.st1{fill:#FFFFFF;}
</style>
<circle class="st0" cx="50" cy="50" r="50"/>
<g>
	<path class="st1" d="M22.5,75c0.6-1.7,1.1-3.4,1.7-5c1-3,2-6,3-9c0.1-0.3,0.1-0.6-0.1-0.9c-1.8-3.2-3-6.6-3.4-10.2
		c-0.2-1.9-0.3-3.9-0.1-5.9c0.4-4.4,1.8-8.5,4.3-12.2c2.4-3.7,5.5-6.6,9.3-8.8c2.8-1.6,5.7-2.6,8.9-3.1c3-0.5,5.9-0.5,8.9,0
		c3.2,0.5,6.2,1.6,9.1,3.3c2.5,1.4,4.7,3.2,6.6,5.3c2.4,2.6,4.1,5.6,5.3,8.9c1.2,3.5,1.7,7,1.5,10.7c-0.2,4.1-1.3,8-3.4,11.5
		c-3.2,5.7-7.8,9.7-13.9,12.1c-2.3,0.9-4.8,1.5-7.3,1.7c-4.6,0.4-9.1-0.3-13.3-2.2c-0.7-0.3-1.4-0.6-2-1c-0.1-0.1-0.3-0.1-0.4,0
		c-4.8,1.5-9.6,3.1-14.4,4.6C22.7,74.9,22.6,74.9,22.5,75z M29.5,68c0.1,0,0.2,0,0.3-0.1c2.7-0.9,5.4-1.7,8.1-2.6
		c0.2-0.1,0.3-0.1,0.5,0c3.5,2.2,7.2,3.4,11.3,3.6c3.6,0.1,7-0.5,10.3-2.1c4.7-2.2,8.3-5.7,10.7-10.4c2.2-4.5,2.9-9.2,2-14.1
		c-1-5.6-3.8-10.2-8.3-13.7c-5.4-4.1-11.4-5.6-18.1-4.3c-5.5,1-9.9,3.8-13.3,8.2c-2.9,3.7-4.5,7.9-4.8,12.5c-0.2,2.8,0.2,5.6,1,8.3
		c0.7,2.2,1.7,4.2,3.1,6.1c0.1,0.1,0.1,0.2,0.1,0.4c-0.6,1.8-1.2,3.5-1.8,5.3C30.1,66.1,29.8,67,29.5,68z"/>
	<path class="st1" d="M41.6,33.3c0.5,0,1,0.1,1.5,0.1c0.5,0,0.8,0.3,1,0.7c0.3,0.5,0.4,1,0.6,1.6c0.5,1.4,1.1,2.9,1.6,4.3
		c0.1,0.4,0.1,0.7-0.1,1.1c-0.4,0.9-1.1,1.5-1.7,2.2c-0.1,0.1-0.2,0.2-0.2,0.2c-0.4,0.4-0.4,0.7-0.2,1.2c1.4,2.5,3.1,4.7,5.5,6.5
		c1.2,0.9,2.5,1.6,3.9,2.2c0.5,0.2,0.9,0.2,1.2-0.2c0.8-0.8,1.6-1.7,2.3-2.6c0.4-0.5,0.7-0.6,1.3-0.4c0.9,0.3,1.7,0.8,2.5,1.3
		c1,0.5,2,1,2.9,1.6c0.1,0.1,0.2,0.1,0.3,0.2c0.3,0.2,0.4,0.4,0.4,0.8c0,1.1-0.3,2-0.7,3c-0.2,0.5-0.6,0.8-1,1.2
		c-1,0.8-2.1,1.4-3.4,1.7c-1.4,0.3-2.7,0.2-4-0.2c-2-0.7-4.1-1.5-6-2.5c-2-1.1-3.8-2.6-5.4-4.2c-1.7-1.7-3.1-3.7-4.4-5.7
		c-0.9-1.3-1.6-2.7-2.1-4.2c-0.6-1.9-0.7-3.8,0-5.6c0.5-1.4,1.3-2.5,2.4-3.4C40.4,33.4,41,33.2,41.6,33.3z"/>
</g>
</svg>
